<svg width="66" height="49" viewBox="0 0 66 49" fill="none" xmlns="http://www.w3.org/2000/svg">
<path fill-rule="evenodd" clip-rule="evenodd" d="M52.492 12.477L65.07 24.953L53.086 36.977C43.614 46.479 40.529 49 38.371 49C35.471 49 33.499 46.565 34.321 44C34.585 43.175 37.775 39.463 41.409 35.75L48.016 29H21.828C-3.33599 29 -4.40099 28.922 -5.42999 27C-6.18999 25.579 -6.18999 24.421 -5.42999 23C-4.40199 21.078 -3.33599 21 21.774 21H47.908L40.739 13.607C36.796 9.54 33.57 5.715 33.57 5.107C33.57 3.64 37.257 0 38.742 0C39.386 0 45.574 5.615 52.492 12.477Z" fill="black"/>
</svg>
