<svg width="72" height="49" viewBox="0 0 72 49" fill="none" xmlns="http://www.w3.org/2000/svg">
<path fill-rule="evenodd" clip-rule="evenodd" d="M58.492 12.477L71.07 24.953L59.086 36.977C49.614 46.479 46.529 49 44.371 49C41.471 49 39.499 46.565 40.321 44C40.585 43.175 43.775 39.463 47.409 35.75L54.016 29H27.828C2.66401 29 1.59901 28.922 0.570007 27C-0.189993 25.579 -0.189993 24.421 0.570007 23C1.59801 21.078 2.66401 21 27.774 21H53.908L46.739 13.607C42.796 9.54 39.57 5.715 39.57 5.107C39.57 3.64 43.257 0 44.742 0C45.386 0 51.574 5.615 58.492 12.477Z" fill="#431B09"/>
</svg>
