<svg width="84" height="84" viewBox="0 0 84 84" fill="none" xmlns="http://www.w3.org/2000/svg">
<path d="M41.6667 0C18.6917 0 0 18.6917 0 41.6667C0 64.6417 18.6917 83.3333 41.6667 83.3333C64.6417 83.3333 83.3333 64.6417 83.3333 41.6667C83.3333 34.9812 81.7126 28.6816 78.9022 23.0754L74.2269 27.7506C76.0602 32.0236 77.0833 36.7271 77.0833 41.6667C77.0833 61.1958 61.1958 77.0833 41.6667 77.0833C22.1375 77.0833 6.25 61.1958 6.25 41.6667C6.25 22.1375 22.1375 6.25 41.6667 6.25C50.9292 6.25 59.345 9.85251 65.6616 15.6942L70.0806 11.2752C62.6285 4.30231 52.6521 0 41.6667 0ZM73.8973 14.5548C73.0857 14.5785 72.3152 14.9171 71.7489 15.4989L36.4583 50.7894L28.2511 42.5822C27.9632 42.2823 27.6183 42.0428 27.2366 41.8779C26.855 41.7129 26.4443 41.6258 26.0285 41.6216C25.6128 41.6174 25.2003 41.6961 24.8154 41.8533C24.4305 42.0104 24.0808 42.2428 23.7868 42.5368C23.4928 42.8308 23.2604 43.1805 23.1033 43.5654C22.9461 43.9503 22.8674 44.3628 22.8716 44.7785C22.8758 45.1943 22.963 45.605 23.1279 45.9866C23.2928 46.3683 23.5323 46.7132 23.8322 47.0011L34.2489 57.4178C34.8349 58.0036 35.6297 58.3327 36.4583 58.3327C37.287 58.3327 38.0817 58.0036 38.6678 57.4178L76.1678 19.9178C76.6186 19.4787 76.9264 18.9138 77.0509 18.2969C77.1753 17.68 77.1106 17.0399 76.8653 16.4604C76.6199 15.8809 76.2053 15.3889 75.6758 15.0489C75.1462 14.7089 74.5263 14.5367 73.8973 14.5548Z" fill="white"/>
</svg>
