<svg width="47" height="52" viewBox="0 0 47 52" fill="none" xmlns="http://www.w3.org/2000/svg">
<path d="M6.44199 51.5245C8.30301 51.5245 10.1164 50.5995 10.8322 49.7861L10.53 48.4304L10.419 48.4466C9.95757 50.6156 7.96932 51.2695 6.44227 51.2695C3.53134 51.2695 1.43173 48.8453 1.43173 45.2887C1.43173 41.764 3.53134 39.3079 6.44227 39.3079C7.55576 39.3079 9.6713 39.6748 10.3871 41.7959H10.5143V40.3924C9.75075 39.8342 8.27142 39.0527 6.4422 39.0527C3.0064 39.0527 0 41.6843 0 45.3046C0 48.925 3.00619 51.5245 6.44199 51.5245Z" fill="#F2E6DC"/>
<path d="M21.9527 51.5484C21.4267 51.5058 21.0714 51.2348 20.9434 50.5507V48.7121C21.8247 47.2868 22.2086 46.1323 23.8718 43.8518C24.9948 42.5405 26.0467 41.7281 27.4682 41.7281C28.7191 41.7281 29.899 42.4835 30.4108 43.9943C30.5813 44.593 30.6096 45.0206 31.0931 45.0206C31.235 45.0206 31.363 44.9208 31.363 44.65C31.363 44.5645 31.3496 44.4647 31.3183 44.3506C30.9203 42.512 29.5414 41.4858 27.9209 41.4858C26.7836 41.4858 25.5611 41.9561 24.6087 42.7828V41.4858L22.846 42.1129C23.372 42.1412 23.7416 42.4265 23.8695 43.1249V43.6095C22.2632 45.7617 21.7514 47.0017 20.9411 48.4127C20.6143 48.9259 20.4436 49.3392 19.7329 49.9805C18.8089 50.8357 17.2594 51.3346 15.8379 51.3346C14.2884 51.3346 12.8953 50.736 12.7105 49.3677C12.6971 49.2252 12.6837 49.0826 12.6837 48.9401C12.6837 46.3175 16.4365 46.5171 18.6257 45.049C19.0662 44.7497 19.5923 44.3506 19.8481 43.9088C20.0044 44.3934 20.1181 44.9207 20.1893 45.5051V49.0256C20.4454 48.6835 20.7721 48.1704 20.9427 47.8711V46.5171C20.9427 45.106 20.3173 41.4858 16.5502 41.4858C14.5601 41.4858 12.84 42.6688 12.0298 44.3506C11.9447 44.5502 11.9017 44.6927 11.9017 44.7925C11.9017 44.9493 11.9872 45.0206 12.1148 45.0206C12.314 45.0206 12.6266 44.821 12.7403 44.5787C13.5221 42.8113 15.1569 41.6711 16.8485 41.6711C17.1754 41.6711 17.5024 41.7137 17.8151 41.7993C18.8671 42.0844 19.4357 42.7828 19.7911 43.7092C19.5068 44.1796 18.9666 44.5929 18.5259 44.9065C16.1236 46.5741 12.0153 46.118 11.9016 48.7548V48.8688C11.9016 50.6219 13.6643 51.5484 15.6971 51.5484C17.2608 51.5484 18.995 50.9925 20.1891 49.838V50.5507C20.1891 51.1208 20.5159 51.5484 21.2552 51.5484L21.9527 51.5484ZM25.6202 51.5484H22.8624C23.3742 51.5201 23.7438 51.2491 23.8718 50.5507V44.3221C24.1417 44.0086 24.3977 43.695 24.611 43.5097V50.5507C24.739 51.2491 25.1085 51.5199 25.6202 51.5484ZM35.2724 51.5484H34.5901C33.8367 51.5484 33.5097 51.1066 33.5097 50.5364V43.1249C33.3817 42.4265 33.0122 42.1414 32.5005 42.1129L34.2631 41.4858V50.5364C34.3912 51.2348 34.7606 51.5199 35.2724 51.5484ZM33.8793 41.0154C33.9362 40.7589 34.0499 40.5309 34.2061 40.3741C34.3624 40.203 34.6185 40.1032 34.86 40.0462C34.6182 39.9892 34.3625 39.8894 34.2061 39.7327C34.0499 39.5616 33.9362 39.3336 33.8793 39.077C33.8224 39.3336 33.723 39.5616 33.5663 39.7327C33.3958 39.8895 33.154 39.9892 32.9124 40.0462C33.1542 40.1032 33.3958 40.203 33.5663 40.3741C33.7226 40.5309 33.8224 40.7589 33.8793 41.0154ZM44.8251 50.5935C44.1854 49.7953 43.176 48.5268 41.7829 46.7737L45.1947 42.4693C45.7491 41.8279 46.3603 41.5001 47 41.5001H43.9579C44.2565 41.5001 44.4128 41.6141 44.4128 41.8421C44.4128 41.9989 44.3416 42.1984 44.1997 42.455L41.2714 46.1323L38.3572 42.4693C38.201 42.1985 38.1298 41.9989 38.1298 41.8421C38.1298 41.6141 38.286 41.5001 38.5847 41.5001H36.3956C36.8647 41.5144 37.3906 41.7566 37.945 42.2555L41.1576 46.2748L37.5896 50.7502C37.0921 51.2491 36.5519 51.5199 35.9549 51.5484H38.9828C38.6841 51.534 38.5278 51.4201 38.5278 51.1921C38.5278 51.0353 38.599 50.8215 38.741 50.5792L41.6693 46.9162L44.5692 50.565C44.7255 50.8215 44.811 51.0353 44.811 51.1921C44.811 51.4202 44.6548 51.5342 44.3561 51.5484H46.5879C46.3318 51.534 46.0477 51.4629 45.7208 51.3061C45.4078 51.1636 45.1094 50.9213 44.8251 50.5935Z" fill="#F2E6DC"/>
<path d="M31.1163 11.0146C30.9815 11.6235 30.745 12.1645 30.3739 12.5704C29.9691 12.9424 29.3957 13.1795 28.8223 13.3148C29.3957 13.45 29.9691 13.6868 30.3739 14.0927C30.745 14.4647 30.9814 15.0061 31.1163 15.6149C31.2512 15.0061 31.5211 14.4647 31.8921 14.0927C32.2632 13.6868 32.8703 13.4501 33.4438 13.3148C32.8703 13.1796 32.2632 12.9424 31.8921 12.5704C31.5211 12.1645 31.2513 11.6235 31.1163 11.0146Z" fill="#F2E6DC"/>
<path d="M19.8699 30.1123L14.9173 36.4046C13.7366 37.8928 12.8593 38.535 11.2063 38.535V38.8063H16.0983V38.535C14.7152 38.535 14.4455 37.9262 14.9852 37.2159L20.2034 30.5879L19.8699 30.1123Z" fill="#F2E6DC"/>
<path d="M22.6605 0C15.3741 0 8.9987 5.58053 8.9987 13.2583C8.9987 20.9361 15.3741 26.4498 22.6605 26.4498C22.748 26.4498 22.8362 26.4492 22.9236 26.4474L22.5469 25.9086C16.5654 25.8471 12.2256 20.9409 12.0401 13.7093C12.033 13.7092 12.0234 13.7093 12.0162 13.7093V13.4393H12.0354C12.0345 13.368 12.0341 13.2966 12.0341 13.225C12.0341 5.7501 16.4874 0.541366 22.6607 0.541366C25.022 0.541366 29.5085 1.31949 31.0265 5.81795H31.2958V2.8415C29.6766 1.6577 26.5398 0 22.6605 0ZM31.3302 19.8875L31.0943 19.9209C30.4993 22.7185 28.7065 24.3274 26.6643 25.1591L26.8866 25.4651L27.052 25.7016C29.2258 24.9727 31.0372 23.8223 31.97 22.7624L31.3302 19.8875Z" fill="#F2E6DC"/>
<path d="M12.0258 13.4415V13.7116C13.9486 13.7116 15.0613 14.4566 17.0179 17.264L22.1063 24.536L22.1159 24.5297L24.2889 27.6362L29.6355 35.2229C31.4233 37.7596 31.018 38.5374 29.5676 38.5374V38.8087H38.0014V38.5374C36.0785 38.5374 34.9658 37.7936 33.0093 34.9863L26.5323 25.7188L26.1617 25.2147L26.1569 25.2123L25.8221 24.7045L20.3915 17.0262C18.6036 14.4895 19.0077 13.7116 20.4582 13.7116V13.4415H12.0258Z" fill="#F2E6DC"/>
</svg>
