<svg width="40" height="40" viewBox="0 0 40 40" fill="none" xmlns="http://www.w3.org/2000/svg">
<circle cx="20" cy="20" r="20" fill="#2E0D14"/>
<path d="M9.74908 33.986C10.8321 33.986 11.8875 33.4477 12.3041 32.9743L12.1282 32.1854L12.0636 32.1948C11.7951 33.4571 10.638 33.8377 9.74924 33.8377C8.05515 33.8377 6.83322 32.4268 6.83322 30.357C6.83322 28.3057 8.05515 26.8763 9.74924 26.8763C10.3973 26.8763 11.6285 27.0898 12.0451 28.3243H12.119V27.5075C11.6747 27.1826 10.8138 26.7278 9.7492 26.7278C7.74965 26.7278 5.99999 28.2593 5.99999 30.3662C5.99999 32.4732 7.74953 33.986 9.74908 33.986Z" fill="#F2E6DC"/>
<path d="M18.776 34C18.4698 33.9752 18.263 33.8175 18.1886 33.4193V32.3493C18.7015 31.5198 18.9249 30.8479 19.8928 29.5207C20.5464 28.7576 21.1585 28.2848 21.9858 28.2848C22.7139 28.2848 23.4005 28.7244 23.6983 29.6037C23.7976 29.9521 23.814 30.2009 24.0955 30.2009C24.1781 30.2009 24.2525 30.1429 24.2525 29.9853C24.2525 29.9355 24.2447 29.8774 24.2265 29.8111C23.9949 28.741 23.1924 28.1438 22.2493 28.1438C21.5874 28.1438 20.876 28.4175 20.3217 28.8986V28.1438L19.2958 28.5088C19.6019 28.5252 19.817 28.6913 19.8915 29.0977V29.3797C18.9567 30.6323 18.6588 31.3539 18.1872 32.1751C17.997 32.4737 17.8977 32.7143 17.4841 33.0875C16.9463 33.5852 16.0446 33.8756 15.2173 33.8756C14.3155 33.8756 13.5048 33.5272 13.3972 32.7309C13.3894 32.6479 13.3816 32.565 13.3816 32.482C13.3816 30.9557 15.5657 31.0719 16.8397 30.2175C17.0961 30.0433 17.4022 29.8111 17.5511 29.5539C17.6421 29.8359 17.7083 30.1428 17.7497 30.4829V32.5318C17.8987 32.3327 18.0889 32.0341 18.1882 31.8599V31.0719C18.1882 30.2507 17.8242 28.1438 15.6318 28.1438C14.4736 28.1438 13.4726 28.8323 13.001 29.8111C12.9515 29.9272 12.9265 30.0101 12.9265 30.0682C12.9265 30.1595 12.9763 30.2009 13.0505 30.2009C13.1665 30.2009 13.3484 30.0848 13.4146 29.9438C13.8696 28.9152 14.821 28.2516 15.8054 28.2516C15.9956 28.2516 16.186 28.2764 16.368 28.3263C16.9802 28.4922 17.3111 28.8986 17.5179 29.4378C17.3525 29.7115 17.0381 29.9521 16.7816 30.1345C15.3835 31.105 12.9926 30.8396 12.9264 32.3742V32.4405C12.9264 33.4608 13.9523 34 15.1353 34C16.0454 34 17.0547 33.6765 17.7496 33.0046V33.4193C17.7496 33.7511 17.9398 34 18.37 34L18.776 34ZM20.9104 34H19.3054C19.6032 33.9835 19.8184 33.8258 19.8928 33.4193V29.7945C20.0499 29.612 20.1989 29.4295 20.323 29.3217V33.4193C20.3975 33.8258 20.6125 33.9834 20.9104 34ZM26.5277 34H26.1306C25.6922 34 25.5019 33.7429 25.5019 33.4111V29.0977C25.4273 28.6913 25.2123 28.5254 24.9145 28.5088L25.9403 28.1438V33.4111C26.0148 33.8175 26.2299 33.9834 26.5277 34ZM25.717 27.8701C25.75 27.7207 25.8162 27.588 25.9072 27.4968C25.9981 27.3973 26.1471 27.3392 26.2877 27.306C26.147 27.2728 25.9981 27.2147 25.9072 27.1235C25.8162 27.024 25.75 26.8913 25.717 26.7419C25.6839 26.8913 25.626 27.024 25.5348 27.1235C25.4355 27.2148 25.2948 27.2728 25.1542 27.306C25.2949 27.3392 25.4355 27.3973 25.5348 27.4968C25.6258 27.5881 25.6839 27.7207 25.717 27.8701ZM32.0871 33.4442C31.7149 32.9797 31.1274 32.2415 30.3167 31.2212L32.3022 28.7161C32.6249 28.3429 32.9806 28.1521 33.3529 28.1521H31.5825C31.7563 28.1521 31.8472 28.2184 31.8472 28.3512C31.8472 28.4424 31.8058 28.5585 31.7232 28.7078L30.019 30.8479L28.323 28.7161C28.2321 28.5585 28.1906 28.4424 28.1906 28.3512C28.1906 28.2184 28.2816 28.1521 28.4554 28.1521H27.1814C27.4544 28.1605 27.7605 28.3014 28.0831 28.5917L29.9528 30.9309L27.8763 33.5355C27.5867 33.8258 27.2723 33.9834 26.9249 34H28.687C28.5132 33.9916 28.4223 33.9253 28.4223 33.7926C28.4223 33.7014 28.4637 33.577 28.5463 33.436L30.2505 31.3042L31.9382 33.4277C32.0292 33.577 32.0789 33.7014 32.0789 33.7926C32.0789 33.9254 31.988 33.9917 31.8142 34H33.113C32.964 33.9916 32.7987 33.9502 32.6084 33.859C32.4263 33.776 32.2526 33.635 32.0871 33.4442Z" fill="#F2E6DC"/>
<path d="M24.109 10.4103C24.0305 10.7646 23.8928 11.0795 23.6769 11.3157C23.4413 11.5322 23.1076 11.6702 22.7739 11.7489C23.1076 11.8276 23.4413 11.9654 23.6769 12.2016C23.8928 12.4181 24.0304 12.7332 24.109 13.0875C24.1874 12.7332 24.3445 12.4181 24.5605 12.2016C24.7764 11.9654 25.1297 11.8276 25.4635 11.7489C25.1297 11.6702 24.7764 11.5322 24.5605 11.3157C24.3445 11.0795 24.1875 10.7646 24.109 10.4103Z" fill="#F2E6DC"/>
<path d="M17.5638 21.5247L14.6815 25.1866C13.9944 26.0527 13.4838 26.4265 12.5218 26.4265V26.5843H15.3688V26.4265C14.5639 26.4265 14.407 26.0721 14.7211 25.6588L17.7579 21.8015L17.5638 21.5247Z" fill="#F2E6DC"/>
<path d="M19.1879 4C14.9474 4 11.237 7.24774 11.237 11.716C11.237 16.1843 14.9474 19.3932 19.1879 19.3932C19.2388 19.3932 19.2901 19.3928 19.341 19.3918L19.1217 19.0782C15.6407 19.0424 13.115 16.1871 13.0071 11.9785C13.0029 11.9785 12.9973 11.9785 12.9932 11.9785V11.8213H13.0043C13.0038 11.7799 13.0036 11.7383 13.0036 11.6966C13.0036 7.34642 15.5953 4.31506 19.188 4.31506C20.5622 4.31506 23.1732 4.76791 24.0567 7.38591H24.2134V5.65369C23.2711 4.96474 21.4456 4 19.1879 4ZM24.2335 15.5741L24.0961 15.5935C23.7499 17.2216 22.7065 18.158 21.518 18.642L21.6474 18.8201L21.7436 18.9577C23.0087 18.5335 24.0629 17.864 24.6058 17.2472L24.2335 15.5741Z" fill="#F2E6DC"/>
<path d="M12.9987 11.8226V11.9798C14.1178 11.9798 14.7653 12.4134 15.904 14.0472L18.8653 18.2793L18.8709 18.2757L20.1355 20.0836L23.2471 24.4989C24.2876 25.9752 24.0517 26.4279 23.2076 26.4279V26.5857H28.1159V26.4279C26.9969 26.4279 26.3493 25.995 25.2106 24.3612L21.4412 18.9677L21.2255 18.6743L21.2227 18.6729L21.0279 18.3774L17.8674 13.9088C16.8269 12.4325 17.062 11.9798 17.9062 11.9798V11.8226H12.9987Z" fill="#F2E6DC"/>
</svg>
