<svg width="124" height="136" viewBox="0 0 124 136" fill="none" xmlns="http://www.w3.org/2000/svg">
<g clip-path="url(#clip0_27_36)">
<path d="M16.9958 135.937C21.9057 135.937 26.69 133.497 28.5785 131.351L27.7811 127.774L27.4882 127.817C26.271 133.539 21.0254 135.264 16.9966 135.264C9.31665 135.264 3.77726 128.869 3.77726 119.485C3.77726 110.186 9.31665 103.706 16.9966 103.706C19.9343 103.706 25.5157 104.674 27.4043 110.27H27.7397V106.567C25.7253 105.095 21.8224 103.033 16.9964 103.033C7.93172 103.033 -6.10352e-05 109.976 -6.10352e-05 119.527C-6.10352e-05 129.079 7.93117 135.937 16.9958 135.937Z" fill="#F2E6DC"/>
<path d="M57.9177 136C56.53 135.887 55.5924 135.173 55.2548 133.368V128.517C57.5801 124.756 58.5928 121.711 62.9807 115.694C65.9436 112.235 68.7188 110.091 72.4692 110.091C75.7695 110.091 78.8824 112.084 80.2325 116.07C80.6826 117.649 80.7571 118.778 82.0328 118.778C82.4073 118.778 82.7449 118.514 82.7449 117.8C82.7449 117.574 82.7096 117.311 82.6269 117.01C81.5768 112.159 77.9389 109.452 73.6635 109.452C70.6631 109.452 67.4378 110.693 64.925 112.874V109.452L60.2744 111.106C61.6621 111.181 62.6373 111.934 62.9748 113.776V115.055C58.7369 120.733 57.3867 124.004 55.2489 127.727C54.3866 129.081 53.9363 130.171 52.0611 131.863C49.6233 134.12 45.5354 135.436 41.785 135.436C37.697 135.436 34.0216 133.857 33.5341 130.247C33.4986 129.871 33.4632 129.494 33.4632 129.118C33.4632 122.199 43.3643 122.726 49.14 118.853C50.3023 118.063 51.6901 117.01 52.3652 115.844C52.7774 117.123 53.0775 118.514 53.2653 120.056V129.344C53.941 128.442 54.803 127.088 55.253 126.298V122.726C55.253 119.003 53.6029 109.452 43.6644 109.452C38.4138 109.452 33.8757 112.573 31.738 117.01C31.5135 117.537 31.4002 117.913 31.4002 118.176C31.4002 118.59 31.6257 118.778 31.9624 118.778C32.488 118.778 33.3126 118.251 33.6127 117.612C35.6753 112.949 39.9884 109.941 44.4513 109.941C45.3136 109.941 46.1765 110.053 47.0016 110.279C49.7769 111.031 51.277 112.874 52.2147 115.318C51.4646 116.559 50.0395 117.649 48.8768 118.477C42.5387 122.876 31.6999 121.673 31.3998 128.63V128.93C31.3998 133.556 36.0504 136 41.4135 136C45.539 136 50.1144 134.533 53.2648 131.487V133.368C53.2648 134.872 54.127 136 56.0775 136L57.9177 136ZM67.5936 136H60.3178C61.668 135.925 62.6432 135.21 62.9807 133.368V116.935C63.693 116.108 64.3684 115.28 64.9309 114.792V133.368C65.2688 135.21 66.2435 135.925 67.5936 136ZM93.0589 136H91.2588C89.2712 136 88.4085 134.834 88.4085 133.33V113.776C88.0707 111.934 87.0959 111.182 85.7458 111.106L90.3962 109.452V133.33C90.734 135.173 91.7088 135.925 93.0589 136ZM89.3836 108.211C89.5336 107.534 89.8336 106.932 90.2459 106.519C90.6581 106.068 91.3337 105.804 91.971 105.654C91.3331 105.503 90.6584 105.24 90.2459 104.827C89.8336 104.375 89.5336 103.774 89.3836 103.097C89.2336 103.774 88.9713 104.375 88.5579 104.827C88.1079 105.24 87.4699 105.503 86.8326 105.654C87.4705 105.804 88.1079 106.068 88.5579 106.519C88.9702 106.932 89.2336 107.534 89.3836 108.211ZM118.262 133.481C116.574 131.375 113.911 128.028 110.236 123.403L119.237 112.046C120.7 110.354 122.312 109.489 124 109.489H115.974C116.762 109.489 117.174 109.79 117.174 110.392C117.174 110.805 116.986 111.332 116.612 112.009L108.886 121.711L101.198 112.046C100.785 111.332 100.598 110.806 100.598 110.392C100.598 109.79 101.01 109.489 101.798 109.489H96.0223C97.2598 109.527 98.6475 110.166 100.11 111.482L108.586 122.087L99.1725 133.894C97.8598 135.21 96.4347 135.925 94.8595 136H102.848C102.06 135.962 101.648 135.662 101.648 135.06C101.648 134.646 101.836 134.082 102.21 133.443L109.936 123.779L117.587 133.405C117.999 134.082 118.225 134.646 118.225 135.06C118.225 135.662 117.812 135.962 117.025 136H122.913C122.237 135.962 121.487 135.774 120.625 135.361C119.799 134.985 119.012 134.346 118.262 133.481Z" fill="#F2E6DC"/>
<path d="M82.0941 29.0601C81.7384 30.6663 81.1143 32.0938 80.1353 33.1646C79.0674 34.1461 77.5547 34.7715 76.0417 35.1285C77.5547 35.4852 79.0674 36.11 80.1353 37.1808C81.1143 38.1623 81.7382 39.5908 82.0941 41.197C82.4499 39.5908 83.1619 38.1623 84.1409 37.1808C85.1199 36.11 86.7216 35.4854 88.2346 35.1285C86.7216 34.7719 85.1199 34.1461 84.1409 33.1646C83.1619 32.0938 82.4502 30.6663 82.0941 29.0601Z" fill="#F2E6DC"/>
<path d="M52.4226 79.4455L39.3563 96.0464C36.2413 99.9727 33.9265 101.667 29.5656 101.667V102.383H42.4721V101.667C38.8231 101.667 38.1116 100.061 39.5355 98.1869L53.3025 80.7004L52.4226 79.4455Z" fill="#F2E6DC"/>
<path d="M59.7852 -3.05176e-05C40.5614 -3.05176e-05 23.7412 14.7231 23.7412 34.9794C23.7412 55.2357 40.5614 69.7824 59.7852 69.7824C60.016 69.7824 60.2487 69.7809 60.4793 69.776L59.4853 68.3545C43.7044 68.1924 32.2547 55.2483 31.7654 36.1691C31.7465 36.169 31.7213 36.1691 31.7023 36.1691V35.4567H31.7528C31.7507 35.2689 31.7496 35.0804 31.7496 34.8914C31.7496 15.1705 43.4988 1.42825 59.7856 1.42825C66.0154 1.42825 77.8522 3.48119 81.8571 15.3494H82.5675V7.4967C78.2956 4.37348 70.02 -3.05176e-05 59.7852 -3.05176e-05ZM82.6585 52.4691L82.0359 52.5574C80.4662 59.9381 75.7362 64.183 70.3483 66.3772L70.9348 67.1844L71.3713 67.8085C77.1064 65.8853 81.8854 62.8504 84.3464 60.0539L82.6585 52.4691Z" fill="#F2E6DC"/>
<path d="M31.7277 35.4624V36.1748C36.8006 36.1748 39.7363 38.1406 44.8982 45.5471L58.323 64.7328L58.3482 64.7164L64.0813 72.9123L78.1871 92.9281C82.9041 99.6207 81.8347 101.673 78.008 101.673V102.389H100.259V101.673C95.1859 101.673 92.2502 99.7104 87.0882 92.3039L70 67.8536L69.0223 66.5235L69.0097 66.5172L68.1265 65.1774L53.7988 44.9198C49.0819 38.2271 50.148 36.1749 53.9748 36.1749V35.4624H31.7277Z" fill="#F2E6DC"/>
</g>
<defs>
<clipPath id="clip0_27_36">
<rect width="124" height="136" fill="white"/>
</clipPath>
</defs>
</svg>
